<svg width="33" height="33" viewBox="0 0 33 33" fill="none" xmlns="http://www.w3.org/2000/svg">
<g clip-path="url(#clip0_1_1055)">
<path d="M16.5 0C7.38717 0 0 7.38742 0 16.5C0 25.6131 7.38717 33 16.5 33C25.6128 33 33 25.6131 33 16.5C33 7.38742 25.6128 0 16.5 0ZM16.5 8.25C17.6391 8.25 18.5625 9.17348 18.5625 10.3125C18.5625 11.452 17.6391 12.375 16.5 12.375C15.3609 12.375 14.4375 11.452 14.4375 10.3125C14.4375 9.17348 15.3609 8.25 16.5 8.25ZM19.5938 24.75H13.4062C12.8367 24.75 12.375 24.2888 12.375 23.7188C12.375 23.1492 12.8367 22.6875 13.4062 22.6875H14.4375V16.5H13.4062C12.8367 16.5 12.375 16.0388 12.375 15.4688C12.375 14.8992 12.8367 14.4375 13.4062 14.4375H17.5312C18.1008 14.4375 18.5625 14.8992 18.5625 15.4688V22.6875H19.5938C20.1633 22.6875 20.625 23.1492 20.625 23.7188C20.625 24.2888 20.1633 24.75 19.5938 24.75Z" fill="#959595"/>
</g>
<defs>
<clipPath id="clip0_1_1055">
<rect width="33" height="33" fill="white"/>
</clipPath>
</defs>
</svg>
