<svg width="100" height="100" fill="none" xmlns="http://www.w3.org/2000/svg"><path d="M90.761 49.918c0 11.276-4.58 21.497-11.963 28.88-7.383 7.384-17.604 11.963-28.88 11.963-11.277 0-21.499-4.58-28.882-11.962-7.383-7.384-11.963-17.605-11.963-28.881 0-11.277 4.58-21.498 11.963-28.881C28.42 13.653 38.641 9.074 49.917 9.074c11.277 0 21.498 4.58 28.881 11.963 7.384 7.383 11.963 17.604 11.963 28.88z" fill="#2FB47C"/><path d="M68.18 29.632L42.014 55.799l-10.36-10.36-7.201 7.202 17.561 17.562 33.37-33.37-7.202-7.201z" fill="#fff"/><path d="M49.92 99.835h-.003c-13.333 0-25.869-5.192-35.297-14.62a50.303 50.303 0 01-1.586-1.66.8.8 0 011.18-1.079 47.6 47.6 0 001.537 1.608c9.126 9.126 21.26 14.152 34.166 14.152h.002a48.329 48.329 0 0023.96-6.354.8.8 0 01.794 1.388 49.934 49.934 0 01-24.753 6.565zm36.852-16.648a.8.8 0 01-.6-1.328 48.277 48.277 0 0012.064-31.941v-.144a.8.8 0 111.599 0v.144c0 12.16-4.426 23.88-12.463 32.998a.798.798 0 01-.6.27zM.799 50.753c-.441 0-.799-.322-.799-.764v-.071a49.887 49.887 0 0112.414-32.945.8.8 0 011.201 1.056A48.287 48.287 0 001.599 49.918c0 .441-.358.835-.8.835zm85.362-33.187a.796.796 0 01-.59-.26 49.329 49.329 0 00-1.487-1.555C74.957 6.625 62.824 1.599 49.917 1.599h-.002a48.316 48.316 0 00-24.02 6.389.799.799 0 11-.796-1.386A49.922 49.922 0 0149.917 0c13.334 0 25.87 5.192 35.297 14.62.524.524 1.037 1.06 1.537 1.607a.8.8 0 01-.59 1.339z" fill="#2FB47C"/></svg>