<svg width="33" height="33" viewBox="0 0 33 33" fill="none" xmlns="http://www.w3.org/2000/svg">
<path d="M33 16.5C33 21.0555 31.15 25.1846 28.1673 28.1672C25.1846 31.1499 21.0555 33 16.5 33C11.9445 33 7.81539 31.1499 4.83272 28.1672C1.85004 25.1846 0 21.0555 0 16.5C0 11.9444 1.85004 7.81539 4.83272 4.83271C7.81539 1.85004 11.9445 0 16.5 0C21.0555 0 25.1846 1.85004 28.1673 4.83271C31.15 7.81539 33 11.9444 33 16.5Z" fill="#0F1C2E"/>
<path d="M23.8781 8.30493L13.3071 18.8759L9.12194 14.6908L6.2126 17.6002L13.3071 24.6948L26.7876 11.2143L23.8781 8.30493Z" fill="white"/>
</svg>
