<svg width="100" height="100" fill="none" xmlns="http://www.w3.org/2000/svg"><path d="M90.912 50c0 11.295-4.588 21.533-11.983 28.929C71.534 86.324 61.295 90.91 50 90.91c-11.295 0-21.533-4.587-28.929-11.982C13.676 71.533 9.09 61.295 9.09 49.999c0-11.294 4.587-21.532 11.982-28.928 7.396-7.396 17.634-11.983 28.93-11.983 11.294 0 21.532 4.588 28.928 11.983C86.324 28.467 90.912 38.705 90.912 50z" fill="#CE5B4E"/><path d="M69.888 37.326l-7.214-7.214L50 42.786 37.326 30.112l-7.213 7.214L42.786 50 30.113 62.674l7.213 7.214L50 57.214l12.674 12.674 7.214-7.214L57.214 50l12.674-12.674z" fill="#fff"/><path d="M50 100c-13.355 0-25.911-5.2-35.355-14.645a50.25 50.25 0 01-1.588-1.662.8.8 0 111.182-1.08c.5.548 1.014 1.086 1.538 1.61C24.92 93.364 37.073 98.4 50 98.4a48.411 48.411 0 0024.002-6.365.8.8 0 11.796 1.39A50.02 50.02 0 0150 100zm36.916-16.676a.8.8 0 01-.6-1.33A48.356 48.356 0 0098.399 50v-.145a.8.8 0 111.601 0V50a49.958 49.958 0 01-12.483 33.053.799.799 0 01-.6.271zM.801 50.837c-.442 0-.801-.323-.801-.765v-.088a49.957 49.957 0 0112.435-32.982.801.801 0 011.203 1.057 48.364 48.364 0 00-12.036 31.94c0 .443-.36.838-.801.838zm85.503-33.242a.798.798 0 01-.591-.261 48.947 48.947 0 00-1.49-1.557C75.082 6.636 62.928 1.601 50 1.601h-.002a48.403 48.403 0 00-24.06 6.4.802.802 0 01-.798-1.389A50.01 50.01 0 0149.997 0H50c13.356 0 25.912 5.2 35.355 14.645a48.78 48.78 0 011.54 1.609.8.8 0 01-.591 1.34z" fill="#CE5B4E"/></svg>